{"title":"The Man Behind the Gun  (Western 1953)  Randolph Scott, Patrice ","uid":9253684,"size":507044891,"categoryP":"video","categoryS":"movies","magnet":"?xt=urn:btih:4194174506abede10076c5b4f6c4542ebf0cf16e&amp;dn=The+Man+Behind+the+Gun++%28Western+1953%29++Randolph+Scott%2C+Patrice+&amp;tr=udp%3A%2F%2Ftracker.openbittorrent.com%3A80&amp;tr=udp%3A%2F%2Fopen.demonii.com%3A1337&amp;tr=udp%3A%2F%2Ftracker.coppersurfer.tk%3A6969&amp;tr=udp%3A%2F%2Fexodus.desync.com%3A6969","seeders":0,"leechers":3,"uploader":"BurtonW","files":1,"time":1385511428,"description":"Very good quality film.\n\nNo subtitles!\n\nScreenshots for this movie may be viewed at KickassTorrents under this same title.\n\n\nStoryline:\n\nPosing as a schoolteacher, undercover government agent Ransome Callicut arrives in 1850's California to gather intelligence about an insurrectionist plot to have the southern part of the state secede to become a slave state. When he discovers a hidden cache of weapons, he reveals his true identity and assumes command of the local army post. Aided by sidekicks Monk Walker and Olaf Swenson he battles political assassination and other intrigues to unmask the ringleader of the plot and keep the Golden State in the Union.\n\n\nTechnical info:\n\n\nGeneral:\n\nComplete name                  : The Man Behind the Gun  (Western 1953)  Randolph Scott, Patrice Wymore &amp; Dick Wesson.mp4\nFormat                         : MPEG-4\nFormat profile                 : Base Media / Version 2\nCodec ID                       : mp42\nFile size                      : 484 MiB\nDuration                       : 1h 22mn\nOverall bit rate mode          : Variable\nOverall bit rate               : 820 Kbps\nEncoded date                   : UTC 2013-10-15 04:24:02\nTagged date                    : UTC 2013-10-15 05:28:45\n\nVideo:\n\nID                             : 1\nFormat                         : AVC\nFormat/Info                    : Advanced Video Codec\nFormat profile                 : &lt;a class=&quot;__cf_email__&quot; href=&quot;/cdn-cgi/l/email-protection&quot; data-cfemail=&quot;397458505779750d1709&quot;&gt;[email&amp;#160;protected]&lt;/a&gt;&lt;script cf-hash='f9e31' type=&quot;text/javascript&quot;&gt;\n/* &lt;![CDATA[ */!function(){try{var t=&quot;currentScript&quot;in document?document.currentScript:function(){for(var t=document.getElementsByTagName(&quot;script&quot;),e=t.length;e--;)if(t[e].getAttribute(&quot;cf-hash&quot;))return t[e]}();if(t&amp;&amp;t.previousSibling){var e,r,n,i,c=t.previousSibling,a=c.getAttribute(&quot;data-cfemail&quot;);if(a){for(e=&quot;&quot;,r=parseInt(a.substr(0,2),16),n=2;a.length-n;n+=2)i=parseInt(a.substr(n,2),16)^r,e+=String.fromCharCode(i);e=document.createTextNode(e),c.parentNode.replaceChild(e,c)}}}catch(u){}}();/* ]]&gt; */&lt;/script&gt;\nFormat settings, CABAC         : Yes\nFormat settings, ReFrames      : 4 frames\nCodec ID                       : avc1\nCodec ID/Info                  : Advanced Video Coding\nDuration                       : 1h 22mn\nBit rate mode                  : Variable\nBit rate                       : 656 Kbps\nWidth                          : 718 pixels\nHeight                         : 478 pixels\nDisplay aspect ratio           : 3:2\nFrame rate mode                : Constant\nFrame rate                     : 25.000 fps\nColor space                    : YUV\nChroma subsampling             : 4:2:0\nBit depth                      : 8 bits\nScan type                      : Progressive\nBits/(Pixel*Frame)             : 0.076\nStream size                    : 387 MiB (80%)\nWriting library                : x264 core 130 r2273 b3065e6\nEncoding settings              : Deleted\nEncoded date                   : UTC 2013-10-15 04:24:02\nTagged date                    : UTC 2013-10-15 05:28:45\nColor primaries                : BT.601 NTSC\nTransfer characteristics       : BT.709\nMatrix coefficients            : BT.601\n\nAudio:\n\nID                             : 2\nFormat                         : AAC\nFormat/Info                    : Advanced Audio Codec\nFormat profile                 : LC\nCodec ID                       : 40\nDuration                       : 1h 22mn\nBit rate mode                  : Variable\nBit rate                       : 160 Kbps\nMaximum bit rate               : 269 Kbps\nChannel(s)                     : 2 channels\nChannel positions              : Front: L R\nSampling rate                  : 48.0 KHz\nCompression mode               : Lossy\nDelay relative to video        : 80ms\nStream size                    : 94.4 MiB (20%)\nEncoded date                   : UTC 2013-10-15 04:24:02\nTagged date                    : UTC 2013-10-15 05:28:44\n","torrent":{"xt":"urn:btih:4194174506abede10076c5b4f6c4542ebf0cf16e","amp;dn":"The+Man+Behind+the+Gun++%28Western+1953%29++Randolph+Scott%2C+Patrice+","amp;tr":["udp%3A%2F%2Ftracker.openbittorrent.com%3A80","udp%3A%2F%2Fopen.demonii.com%3A1337","udp%3A%2F%2Ftracker.coppersurfer.tk%3A6969","udp%3A%2F%2Fexodus.desync.com%3A6969"],"infoHash":"4194174506abede10076c5b4f6c4542ebf0cf16e","infoHashBuffer":{"type":"Buffer","data":[65,148,23,69,6,171,237,225,0,118,197,180,246,196,84,46,191,12,241,110]},"announce":[],"urlList":[]}}